<svg xmlns="http://www.w3.org/2000/svg" xmlns:xlink="http://www.w3.org/1999/xlink" width="127.92" height="96.985" viewBox="0 0 127.92 96.985">
  <defs>
    <clipPath id="clip-path">
      <path id="Clip_6" data-name="Clip 6" d="M0,0H18.759V43.8H0Z" transform="translate(0.161 0.015)" fill="none"/>
    </clipPath>
    <clipPath id="clip-path-2">
      <path id="Clip_9" data-name="Clip 9" d="M0,0H47.744V39.622H0Z" transform="translate(0.176 0.188)" fill="none"/>
    </clipPath>
    <clipPath id="clip-path-3">
      <path id="Clip_12" data-name="Clip 12" d="M0,0H75.935V39.791H0Z" transform="translate(0 0.049)" fill="none"/>
    </clipPath>
  </defs>
  <g id="Group_14" data-name="Group 14" transform="translate(0 -0.302)" opacity="0.15">
    <path id="Fill_1" data-name="Fill 1" d="M3.152,24.579C-2.231,17.579-.555,7.963,6.928,2.9a17.163,17.163,0,0,1,22.944,3.51,14.91,14.91,0,0,1-3.7,21.641A17.16,17.16,0,0,1,3.152,24.579" transform="translate(62 40.287)" fill="#fff"/>
    <path id="Fill_3" data-name="Fill 3" d="M4.449,0c2.33,5.155,7.511,17.916,9.846,23.081A9.139,9.139,0,0,1,21.226,24.8,9.769,9.769,0,0,1,22.92,38.546a8.968,8.968,0,0,1-13.406.844,9.737,9.737,0,0,1-.207-13.562A.985.985,0,0,0,9.513,24.5C7.365,19.8,2.385,7.438.262,2.725.169,2.519.092,2.307,0,2.077L4.449,0" transform="translate(76 55.287)" fill="#fff"/>
    <g id="Group_7" data-name="Group 7" transform="translate(63 0.287)">
      <path id="Clip_6-2" data-name="Clip 6" d="M0,0H18.759V43.8H0Z" transform="translate(0.161 0.015)" fill="none"/>
      <g id="Group_7-2" data-name="Group 7" clip-path="url(#clip-path)">
        <path id="Fill_5" data-name="Fill 5" d="M9.865,43.8C9.28,38.181,8.4,24.457,7.813,18.821A9.5,9.5,0,0,1,4.482,1.4,9.34,9.34,0,0,1,17.689,5.13a9.464,9.464,0,0,1-4.177,12.8.957.957,0,0,0-.629,1.181c.556,5.136,1.373,18.414,1.9,23.553.023.224.028.45.044.7L9.865,43.8" transform="translate(0.161 0.015)" fill="#fff"/>
      </g>
    </g>
    <g id="Group_10" data-name="Group 10" transform="translate(80 50.287)">
      <path id="Clip_9-2" data-name="Clip 9" d="M0,0H47.744V39.622H0Z" transform="translate(0.176 0.188)" fill="none"/>
      <g id="Group_10-2" data-name="Group 10" clip-path="url(#clip-path-2)">
        <path id="Fill_8" data-name="Fill 8" d="M0,4.015C4.411,7.464,25.38,23.168,29.8,26.624a9.765,9.765,0,0,0,.111,7.324,9.293,9.293,0,0,0,12.763,4.663,9.5,9.5,0,0,0,3.768-13.266,9.229,9.229,0,0,0-12.915-3.132.934.934,0,0,1-1.319-.08C28.191,18.964,7.564,3.548,3.529.4,3.353.265,3.167.142,2.968,0L0,4.015" transform="translate(0.176 0.188)" fill="#fff"/>
      </g>
    </g>
    <g id="Group_13" data-name="Group 13" transform="translate(0 53.287)">
      <path id="Clip_12-2" data-name="Clip 12" d="M0,0H75.935V39.791H0Z" transform="translate(0 0.049)" fill="none"/>
      <g id="Group_13-2" data-name="Group 13" clip-path="url(#clip-path-3)">
        <path id="Fill_11" data-name="Fill 11" d="M73.775,0C68.622,2.331,21.909,22.026,16.746,24.363a9.723,9.723,0,0,0-6.558-3.3A9.378,9.378,0,1,0,18.9,29.73a.948.948,0,0,1,.7-1.138c4.717-2.11,51.013-21.635,55.718-23.771.205-.093.4-.2.623-.313L73.775,0" transform="translate(0 0.049)" fill="#fff"/>
      </g>
    </g>
  </g>
</svg>
