<svg xmlns="http://www.w3.org/2000/svg" xmlns:xlink="http://www.w3.org/1999/xlink" width="106" height="93" viewBox="0 0 106 93">
  <defs>
    <clipPath id="clip-path">
      <path id="Clip_2" data-name="Clip 2" d="M53,0A52.9,52.9,0,0,0,0,52.79H0A52.562,52.562,0,0,0,17.529,92.012h0l1.935-11.249c.518-1.125,7.608-6.011,20.387-10.743h0l.038-.008.4-.09,1.958-4.328h3.25c-3.2-1.9-5.454-5.523-7.334-11.488h0c-1.963-.691-3.6-3.081-4.155-6.168h0c-.65-3.628-.125-6.065,1.566-7.259h0c0-.264.015-.534.024-.8h0c-.829-2.227-.5-7.059.9-10.664h0a9.294,9.294,0,0,1,.512-1.08h0c.9-2.162,2.139-3.852,3.634-4.469h0a9.25,9.25,0,0,1,1.589-.5h0a19.221,19.221,0,0,1,2.7-1.24h0c.1-.068.209-.14.322-.217h0a11.69,11.69,0,0,1,6.026-1.81h0l.119,0h0c.245-.012.489-.026.743-.028h0l.023-.009.177.007h.014l.177-.007.023.009c.254,0,.5.016.743.028h0l.118,0h0a11.691,11.691,0,0,1,6.026,1.81h0l.322.217h0a19.221,19.221,0,0,1,2.7,1.24h0a9.25,9.25,0,0,1,1.589.5h0c1.495.617,2.733,2.307,3.634,4.469h0a9.3,9.3,0,0,1,.512,1.08h0c1.4,3.6,1.729,8.437.9,10.664h0c.01.268.024.538.024.8h0c1.691,1.194,2.216,3.631,1.566,7.259h0c-.559,3.087-2.192,5.478-4.155,6.168h0C64.656,60.071,62.4,63.693,59.2,65.594h3.251l1.958,4.328.4.09.038.008c12.78,4.732,19.869,9.618,20.387,10.743h0L87.337,93A52.586,52.586,0,0,0,106,52.79h0A52.9,52.9,0,0,0,53,0Z" fill="none"/>
    </clipPath>
  </defs>
  <g id="Group_3" data-name="Group 3" opacity="0.15">
    <path id="Clip_2-2" data-name="Clip 2" d="M53,0A52.9,52.9,0,0,0,0,52.79H0A52.562,52.562,0,0,0,17.529,92.012h0l1.935-11.249c.518-1.125,7.608-6.011,20.387-10.743h0l.038-.008.4-.09,1.958-4.328h3.25c-3.2-1.9-5.454-5.523-7.334-11.488h0c-1.963-.691-3.6-3.081-4.155-6.168h0c-.65-3.628-.125-6.065,1.566-7.259h0c0-.264.015-.534.024-.8h0c-.829-2.227-.5-7.059.9-10.664h0a9.294,9.294,0,0,1,.512-1.08h0c.9-2.162,2.139-3.852,3.634-4.469h0a9.25,9.25,0,0,1,1.589-.5h0a19.221,19.221,0,0,1,2.7-1.24h0c.1-.068.209-.14.322-.217h0a11.69,11.69,0,0,1,6.026-1.81h0l.119,0h0c.245-.012.489-.026.743-.028h0l.023-.009.177.007h.014l.177-.007.023.009c.254,0,.5.016.743.028h0l.118,0h0a11.691,11.691,0,0,1,6.026,1.81h0l.322.217h0a19.221,19.221,0,0,1,2.7,1.24h0a9.25,9.25,0,0,1,1.589.5h0c1.495.617,2.733,2.307,3.634,4.469h0a9.3,9.3,0,0,1,.512,1.08h0c1.4,3.6,1.729,8.437.9,10.664h0c.01.268.024.538.024.8h0c1.691,1.194,2.216,3.631,1.566,7.259h0c-.559,3.087-2.192,5.478-4.155,6.168h0C64.656,60.071,62.4,63.693,59.2,65.594h3.251l1.958,4.328.4.09.038.008c12.78,4.732,19.869,9.618,20.387,10.743h0L87.337,93A52.586,52.586,0,0,0,106,52.79h0A52.9,52.9,0,0,0,53,0Z" fill="none"/>
    <g id="Group_3-2" data-name="Group 3" clip-path="url(#clip-path)">
      <path id="Fill_1" data-name="Fill 1" d="M53,0A52.9,52.9,0,0,0,0,52.79H0A52.562,52.562,0,0,0,17.529,92.012h0l1.935-11.249c.518-1.125,7.608-6.011,20.387-10.743h0l.038-.008.4-.09,1.958-4.328h3.25c-3.2-1.9-5.454-5.523-7.334-11.488h0c-1.963-.691-3.6-3.081-4.155-6.168h0c-.65-3.628-.125-6.065,1.566-7.259h0c0-.264.015-.534.024-.8h0c-.829-2.227-.5-7.059.9-10.664h0a9.294,9.294,0,0,1,.512-1.08h0c.9-2.162,2.139-3.852,3.634-4.469h0a9.25,9.25,0,0,1,1.589-.5h0a19.221,19.221,0,0,1,2.7-1.24h0c.1-.068.209-.14.322-.217h0a11.69,11.69,0,0,1,6.026-1.81h0l.119,0h0c.245-.012.489-.026.743-.028h0l.023-.009.177.007h.014l.177-.007.023.009c.254,0,.5.016.743.028h0l.118,0h0a11.691,11.691,0,0,1,6.026,1.81h0l.322.217h0a19.221,19.221,0,0,1,2.7,1.24h0a9.25,9.25,0,0,1,1.589.5h0c1.495.617,2.733,2.307,3.634,4.469h0a9.3,9.3,0,0,1,.512,1.08h0c1.4,3.6,1.729,8.437.9,10.664h0c.01.268.024.538.024.8h0c1.691,1.194,2.216,3.631,1.566,7.259h0c-.559,3.087-2.192,5.478-4.155,6.168h0C64.656,60.071,62.4,63.693,59.2,65.594h3.251l1.958,4.328.4.09.038.008c12.78,4.732,19.869,9.618,20.387,10.743h0L87.337,93A52.586,52.586,0,0,0,106,52.79h0A52.9,52.9,0,0,0,53,0Z" fill="#fff"/>
    </g>
  </g>
</svg>
